<svg width="53" height="25" viewBox="0 0 53 25" fill="none" xmlns="http://www.w3.org/2000/svg">
<g opacity="0.67">
<path d="M10.9863 7.65813C11.4955 7.4884 12.0386 7.39788 12.6021 7.39788C15.0688 7.39788 17.1282 9.14949 17.5989 11.4782L21.0953 10.7653C20.2942 6.80948 16.7955 3.8313 12.6021 3.8313C11.6403 3.8313 10.7192 3.98745 9.85474 4.27712L10.9863 7.65813Z" fill="#C0BEBE"/>
<path d="M6.86088 18.9871L9.22578 16.3144C8.17119 15.3798 7.50585 14.0151 7.50585 12.4944C7.50585 10.9758 8.17119 9.61122 9.22578 8.67884L6.86088 6.00391C5.06854 7.59257 3.93701 9.91221 3.93701 12.4944C3.93701 15.0788 5.06854 17.3984 6.86088 18.9871" fill="#C0BEBE"/>
<path d="M17.5989 13.5172C17.1259 15.8436 15.0688 17.593 12.6044 17.593C12.0386 17.593 11.4932 17.5025 10.9863 17.3305L9.85474 20.716C10.7192 21.0034 11.6426 21.1596 12.6044 21.1596C16.7933 21.1596 20.2897 18.1859 21.0953 14.2346L17.5989 13.5172Z" fill="#C0BEBE"/>
<path d="M24.1528 16.4253C24.0374 16.2398 23.8835 15.9433 23.7885 15.7238C23.234 14.4384 23.2091 13.1077 23.6753 11.8313C24.189 10.4305 25.1712 9.36006 26.4408 8.8124C28.0362 8.12669 29.7992 8.26021 31.329 9.1677C32.2998 9.72441 32.9878 10.5844 33.5106 11.8019C33.5762 11.958 33.635 12.1232 33.6939 12.2658L24.1528 16.4253ZM27.3392 10.8786C26.2054 11.3651 25.6216 12.4288 25.7438 13.6734L30.5414 11.6073C29.7154 10.6387 28.6427 10.3173 27.3392 10.8786V10.8786ZM31.1389 15.373C31.1366 15.373 31.1366 15.3753 31.1366 15.3753L31.0371 15.3074C30.7496 15.7713 30.3038 16.1492 29.7403 16.3936C28.6676 16.8598 27.6742 16.7399 26.959 16.113L26.8934 16.2126C26.8934 16.2126 26.8934 16.2103 26.8911 16.2103L25.6736 18.0321C25.9769 18.2426 26.3005 18.4191 26.6399 18.5617C27.9842 19.1206 29.3601 19.0935 30.7157 18.5051C31.6956 18.0796 32.465 17.4324 32.9901 16.6109L31.1389 15.373ZM37.0274 6.13293V16.2579L38.6025 16.896L37.7086 18.9826L35.9705 18.2584C35.5813 18.0887 35.3142 17.8307 35.1151 17.5387C34.9227 17.2423 34.7802 16.8327 34.7802 16.285V6.13293H37.0274ZM41.1054 13.6802C41.1054 12.818 41.4879 12.044 42.0898 11.519L40.474 9.71762C39.3787 10.6862 38.6885 12.1006 38.6885 13.6757C38.6862 15.2531 39.3764 16.6697 40.4695 17.6383L42.083 15.8369C41.4833 15.3096 41.1054 14.5402 41.1054 13.6802V13.6802ZM43.975 16.5521C43.6581 16.5521 43.3504 16.4977 43.0652 16.4027L42.2935 18.6952C42.8208 18.8717 43.3843 18.969 43.9727 18.969C46.53 18.9713 48.664 17.1563 49.1596 14.7461L46.7879 14.2618C46.5186 15.5722 45.3622 16.5543 43.975 16.5521V16.5521ZM43.9817 8.39147C43.3956 8.39147 42.8321 8.48652 42.3048 8.66077L43.0697 10.9555C43.3571 10.8605 43.6627 10.8084 43.9795 10.8084C45.369 10.8107 46.5277 11.7974 46.7902 13.1099L49.1619 12.6302C48.6753 10.2155 46.5413 8.39373 43.9817 8.39147V8.39147Z" fill="#C0BEBE"/>
</g>
</svg>
